<?xml version="1.0" standalone="no"?>
<!DOCTYPE svg PUBLIC "-//W3C//DTD SVG 1.1//EN" "http://www.w3.org/Graphics/SVG/1.1/DTD/svg11.dtd" >
<svg xmlns="http://www.w3.org/2000/svg">
<metadata>
Created by FontForge 20120731 at Wed Jul 12 14:42:33 2017
 By admin
</metadata>
<defs>
<font id="iconfont" horiz-adv-x="1024" >
  <font-face 
    font-family="iconfont"
    font-weight="500"
    font-stretch="normal"
    units-per-em="1024"
    panose-1="2 0 6 3 0 0 0 0 0 0"
    ascent="896"
    descent="-128"
    x-height="792"
    bbox="0 -108 1451 876"
    underline-thickness="0"
    underline-position="0"
    unicode-range="U+0078-E643"
  />
<missing-glyph 
 />
    <glyph glyph-name=".notdef" 
 />
    <glyph glyph-name=".notdef" 
 />
    <glyph glyph-name=".null" horiz-adv-x="0" 
 />
    <glyph glyph-name="nonmarkingreturn" horiz-adv-x="341" 
 />
    <glyph glyph-name="x" unicode="x" horiz-adv-x="1001" 
d="M281 543q-27 -1 -53 -1h-83q-18 0 -36.5 -6t-32.5 -18.5t-23 -32t-9 -45.5v-76h912v41q0 16 -0.5 30t-0.5 18q0 13 -5 29t-17 29.5t-31.5 22.5t-49.5 9h-133v-97h-438v97zM955 310v-52q0 -23 0.5 -52t0.5 -58t-10.5 -47.5t-26 -30t-33 -16t-31.5 -4.5q-14 -1 -29.5 -0.5
t-29.5 0.5h-32l-45 128h-439l-44 -128h-29h-34q-20 0 -45 1q-25 0 -41 9.5t-25.5 23t-13.5 29.5t-4 30v167h911zM163 247q-12 0 -21 -8.5t-9 -21.5t9 -21.5t21 -8.5q13 0 22 8.5t9 21.5t-9 21.5t-22 8.5zM316 123q-8 -26 -14 -48q-5 -19 -10.5 -37t-7.5 -25t-3 -15t1 -14.5
t9.5 -10.5t21.5 -4h37h67h81h80h64h36q23 0 34 12t2 38q-5 13 -9.5 30.5t-9.5 34.5q-5 19 -11 39h-368zM336 498v228q0 11 2.5 23t10 21.5t20.5 15.5t34 6h188q31 0 51.5 -14.5t20.5 -52.5v-227h-327z" />
    <glyph glyph-name="jiantou" unicode="&#xe623;" 
d="M157 415q-10 0 -10 -10v-43q0 -11 10 -11h599l-152 -146q-7 -7 0 -14l31 -31q7 -7 14 0l193 186q1 0 1 1l1 1l30 28q3 4 3 8q0 5 -3 8l-30 28l-1 1q0 1 -1 1l-193 186q-7 7 -14 0l-31 -31q-7 -7 0 -14l154 -148h-601v0zM157 415z" />
    <glyph glyph-name="houtui" unicode="&#xe605;" 
d="M184 521l262 -250v152q25 0 42 -0.5t48.5 -5t54.5 -12t50.5 -23t44.5 -36.5t29 -55t12 -77q0 -81 -51.5 -142.5t-128.5 -76.5q124 17 208.5 111t84.5 221q0 64 -20 116t-48.5 84.5t-70.5 56.5t-76.5 35t-77 17t-61.5 7t-40 1v129z" />
    <glyph glyph-name="baocun" unicode="&#xe606;" 
d="M840 753h-656q-17 0 -29 -12t-12 -29v-656q0 -17 12 -29t29 -12h656q17 0 29 12t12 29v656q0 17 -12 29t-29 12zM369 671h286v-226q0 -9 -5.5 -14.5t-14.5 -5.5h-246q-9 0 -14.5 5.5t-5.5 14.5v226zM799 118q0 -9 -6 -15t-15 -6h-532q-9 0 -15 6t-6 15v532q0 9 6 15t15 6
h41v-287q0 -17 12 -29t29 -12h368q17 0 29 12t12 29v287h41q9 0 15 -6t6 -15v-532zM635 630h-82v-144h82v144z" />
    <glyph glyph-name="qianjin" unicode="&#xe607;" 
d="M840 521l-262 -250v152q-25 0 -42 -0.5t-48.5 -5t-54.5 -12t-50.5 -23t-44.5 -36.5t-29 -55t-12 -77q0 -81 51.5 -142.5t128.5 -76.5q-125 17 -209 111t-84 221q0 64 20 116t48.5 84.5t70.5 56.5t76.5 35t77 17t61.5 7t40 1v129z" />
    <glyph glyph-name="shezhi" unicode="&#xe608;" 
d="M881 472h-72q-2 4 -7 17.5t-10.5 27t-11.5 23.5l51 49q13 12 13 28.5t-13 28.5l-57 57q-12 13 -29 13t-28 -13l-47 -51q-20 11 -68 29v72q0 16 -15 28.5t-32 12.5h-82q-17 0 -32 -12.5t-15 -28.5v-72q-4 -2 -17.5 -7t-27 -10.5t-23.5 -11.5l-51 51q-12 13 -28.5 13
t-28.5 -13l-57 -57q-13 -12 -13 -29t13 -28l51 -47q-11 -20 -29 -68h-72q-16 0 -28.5 -15t-12.5 -32v-82q0 -17 12.5 -32t28.5 -15h72q2 -4 7 -17.5t10.5 -27t11.5 -23.5l-51 -51q-13 -12 -13 -28.5t13 -28.5l57 -57q12 -13 29 -13t28 13l47 51q20 -11 68 -29v-72
q0 -16 15 -28.5t32 -12.5h82q17 0 32 12.5t15 28.5v72q4 2 17.5 7t27 10.5t23.5 11.5l49 -51q12 -13 28.5 -13t28.5 13l57 57q13 12 13 29t-13 28l-51 47q11 20 29 68h74q16 0 28.5 15t12.5 32v82q0 19 -12.5 34t-28.5 15zM512 146q-98 0 -168 70t-70 168t70 168t168 70
t168 -70t70 -168t-70 -168t-168 -70zM512 146z" />
    <glyph glyph-name="jietu" unicode="&#xe60a;" 
d="M717 200h82v409q0 17 -12 29t-29 12h-410v-82h369v-368zM82 609q0 -17 12 -29t29 -12h102v82h-102q-17 0 -29 -12t-12 -29zM932 179h-604v615q0 16 -12 28.5t-29 12.5t-29 -12.5t-12 -28.5v-666q0 -12 9 -21.5t21 -9.5h656q12 0 21.5 9.5t9.5 21.5v20q0 13 -9.5 22
t-21.5 9zM717 -26q0 -16 12 -28.5t29 -12.5t29 12.5t12 28.5v103h-82v-103z" />
    <glyph glyph-name="wenjian" unicode="&#xe60b;" 
d="M860 650h-368v82q0 17 -12.5 29t-28.5 12h-287q-17 0 -29 -12t-12 -29v-696q0 -17 12 -29t29 -12h696q17 0 29 12t12 29v573q0 17 -12 29t-29 12zM819 97q0 -9 -5.5 -14.5t-14.5 -5.5h-574q-9 0 -14.5 5.5t-5.5 14.5v287q0 9 5.5 14.5t14.5 5.5h574q9 0 14.5 -5.5
t5.5 -14.5v-287zM819 486h-450v2h-164v183q0 9 5.5 14.5t14.5 5.5h164q9 0 15 -5.5t6 -14.5v-103h409v-82z" />
    <glyph glyph-name="suoding" unicode="&#xe60d;" 
d="M410 609q0 43 29.5 73t72.5 30t72.5 -30t29.5 -73v-143h82v164q0 67 -48 115.5t-116 48.5h-40q-68 0 -116 -48.5t-48 -115.5v-164h82v143zM758 425h-492q-17 0 -29 -12t-12 -29v-369q0 -17 12 -29t29 -12h492q17 0 29 12t12 29v369q0 17 -12 29t-29 12zM553 146v-53
q0 -15 -11 -26t-26 -11h-6q-15 0 -26 11t-11 26v47v6q-28 13 -44.5 38t-16.5 57q0 43 29.5 72.5t72.5 29.5t72.5 -29.5t29.5 -72.5q-1 -31 -18.5 -56.5t-44.5 -38.5z" />
    <glyph glyph-name="gb" unicode="&#xe60e;" 
d="M987 764l-95 95l-380 -380l-380 380l-95 -95l380 -380l-380 -380l95 -95l380 380l380 -380l95 95l-380 380z" />
    <glyph glyph-name="mb" unicode="&#xe60f;" 
d="M942 445h-369v369q0 26 -17.5 44t-43.5 18t-43.5 -18t-17.5 -44v-369h-369q-26 0 -44 -17.5t-18 -43.5t18 -43.5t44 -17.5h369v-369q0 -26 17.5 -44t43.5 -18t43.5 18t17.5 44v369h369q26 0 44 17.5t18 43.5t-18 43.5t-44 17.5z" />
    <glyph glyph-name="tpsq" unicode="&#xe611;" horiz-adv-x="1316" 
d="M658 823l659 -878h-1317z" />
    <glyph glyph-name="ss" unicode="&#xe612;" 
d="M950 -6l-145 145q-6 6 -11 9q55 59 85.5 134.5t30.5 158.5q0 116 -57 214.5t-155 155.5t-214.5 57t-214.5 -57t-155 -155.5t-57 -214.5t57 -214.5t155 -155.5t215 -57q125 0 230 68q4 -12 11 -19l145 -145q17 -18 40 -18t40 18q17 14 17 37.5t-17 38.5zM483.5 128
q-130.5 0 -221.5 91.5t-91 221.5t91 221.5t221.5 91.5t221.5 -91.5t91 -221.5t-91 -221.5t-221.5 -91.5z" />
    <glyph glyph-name="gd" unicode="&#xe613;" 
d="M512 628q51 0 86.5 35.5t35.5 86.5t-35.5 86.5t-86.5 35.5t-86.5 -35.5t-35.5 -86.5t35.5 -86.5t86.5 -35.5zM512 506q-51 0 -86.5 -35.5t-35.5 -86.5t35.5 -86.5t86.5 -35.5t86.5 35.5t35.5 86.5t-35.5 86.5t-86.5 35.5zM512 140q-51 0 -86.5 -35.5t-35.5 -86.5
t35.5 -86.5t86.5 -35.5t86.5 35.5t35.5 86.5t-35.5 86.5t-86.5 35.5z" />
    <glyph glyph-name="cd" unicode="&#xe614;" horiz-adv-x="1152" 
d="M128 704h896q26 0 45 19t19 45t-19 45t-45 19h-896q-26 0 -45 -19t-19 -45t19 -45t45 -19zM1024 448h-896q-26 0 -45 -19t-19 -45t19 -45t45 -19h896q26 0 45 19t19 45t-19 45t-45 19zM1024 64h-896q-26 0 -45 -19t-19 -45t19 -45t45 -19h896q26 0 45 19t19 45t-19 45
t-45 19z" />
    <glyph glyph-name="xl" unicode="&#xe617;" horiz-adv-x="1536" 
d="M768 -43l-683 854h1366z" />
    <glyph glyph-name="right1" unicode="&#xe610;" 
d="M768 333l-400 -396q-21 -21 -51.5 -21t-51.5 21l-32 42l391 410l-391 409l37 33q21 21 51 21t51 -21l401 -396q17 -17 16.5 -47.5t-21.5 -54.5z" />
    <glyph glyph-name="up1" unicode="&#xe615;" 
d="M563 640l396 -400q21 -21 21 -51.5t-21 -51.5l-42 -32l-410 391l-409 -391l-33 37q-21 21 -21 51t21 51l396 401q17 17 47.5 16.5t54.5 -21.5z" />
    <glyph glyph-name="down1" unicode="&#xe61b;" 
d="M461 128l-396 400q-21 21 -21 51.5t21 51.5l42 32l410 -391l409 391l33 -37q21 -21 21 -51t-21 -51l-396 -401q-17 -17 -47.5 -16.5t-54.5 21.5z" />
    <glyph glyph-name="left1" unicode="&#xe61c;" 
d="M256 435l400 396q21 21 51.5 21t51.5 -21l32 -42l-391 -410l391 -409l-37 -33q-21 -21 -51 -21t-51 21l-401 396q-17 17 -16.5 47.5t21.5 54.5z" />
    <glyph glyph-name="modelroom" unicode="&#xe616;" 
d="M331 173h121v121h-121v-121zM361 264h61v-61h-61v61zM834 354l-313 328q-2 2 -5.5 2t-3.5 -2q-5 5 -9 0l-313 -328q-9 -14 -9 -30v-332q0 -30 56 -58l4 -2h542q25 0 42.5 18t17.5 42v332q0 16 -9 30zM663 -8h-61v151h61v-151zM783 -8h-60v211h-181v-211h-301v314l271 277
l271 -277v-314zM985 384l-443 443q-13 9 -30 9q-16 5 -30 -9l-443 -443q-11 -11 -11 -25t11 -23q11 -11 25 -11t23 11l422 421l422 -421q11 -11 25 -11t23 11q13 9 14 23t-8 25z" />
    <glyph glyph-name="group" unicode="&#xe618;" 
d="M876 444h-6q-36 0 -61.5 -25.5t-25.5 -61.5v-33h-120v33q0 36 -26 61.5t-62 25.5h-6q-36 0 -61.5 -25.5t-25.5 -61.5v-247q0 -35 25 -60t59 -27h-24v-61h60v61h241v-61h61v61h-28q37 0 62.5 25.5t25.5 61.5v247q0 36 -25.5 61.5t-62.5 25.5zM663 264h120v-61h-120v61z
M867 23zM904 113q0 -12 -9 -21t-22 -9h-331v271q0 12 8.5 21t21.5 9q12 0 21 -8.5t9 -21.5v-211h241v211q0 12 8.5 21t21.5 9q12 0 21.5 -8.5t9.5 -21.5v-241zM632 444h181q25 0 42.5 18t17.5 42v121q0 25 -17.5 42.5t-42.5 17.5h-181q-24 0 -42 -17.5t-18 -42.5v-121
q0 -24 18 -42t42 -18zM632 625h181v-121h-181v121zM180.5 203q13.5 0 22 8.5t8.5 21.5v121q0 12 -8.5 21t-21.5 9q-12 0 -21 -8.5t-9 -21.5v-121q0 -13 8 -21.5t21.5 -8.5zM392 806h-272q-24 0 -42 -18t-18 -43v-722q0 -25 18 -43t42 -18h272q24 0 42 18t18 43v722
q0 25 -18 43t-42 18zM392 53q0 -14 -8.5 -22t-22.5 -8h-210q-14 0 -22.5 8t-8.5 22v361h272v-361zM392 474h-272v241q0 14 8.5 22t22.5 8h210q14 0 22.5 -8t8.5 -22v-241zM180.5 685q-13.5 0 -21.5 -8t-8 -22v-120q0 -12 8.5 -21.5t21.5 -9.5q12 0 21 9t9 22v120
q0 14 -8.5 22t-22 8z" />
    <glyph glyph-name="bdx" unicode="&#xe61a;" 
d="M171 678l-133 133q-4 -4 -4 -17v-820q0 -10 4 -17l133 133v588zM806 725l133 133q-4 4 -17 4h-820q-13 0 -17 -4l133 -133h588zM986 811l-133 -133v-588l133 -133q0 4 2 9t2 8v820q0 13 -4 17zM218 43l-133 -133q4 -4 17 -4h820q10 0 17 4l-133 133h-588z" />
    <glyph glyph-name="bdxk" unicode="&#xe61d;" 
d="M717 589h-137v-137h137v137zM444 589h-137v-137h137v137zM806 725l133 133q-4 4 -17 4h-820q-13 0 -17 -4l133 -133h588zM171 678l-133 133q-4 -4 -4 -17v-820q0 -10 4 -17l133 133v588zM307 179h137v137h-137v-137zM218 43l-133 -133q4 -4 17 -4h820q10 0 17 4l-133 133
h-588zM986 811l-133 -133v-588l133 -133q0 4 2 9t2 8v820q0 13 -4 17zM580 179h137v137h-137v-137z" />
    <glyph glyph-name="yxk" unicode="&#xe61e;" 
d="M273 179v34h-68v-102q0 -15 9.5 -24.5t24.5 -9.5h102v68h-34q-15 0 -24.5 9.5t-9.5 24.5zM205 657v-102h68v34q0 15 9.5 24.5t24.5 9.5h34v68h-102q-15 0 -24.5 -9.5t-9.5 -24.5zM273 452h-68v-136h68v136zM444 623h136v68h-136v-68zM785 691h-102v-68h34q15 0 24.5 -9.5
t9.5 -24.5v-34h68v102q0 15 -9.5 24.5t-24.5 9.5zM751 316h68v136h-68v-136zM922 862h-820q-28 0 -48 -20t-20 -48v-820q0 -28 20 -48t48 -20h820q28 0 48 20t20 48v820q0 28 -20 48t-48 20zM922 9q0 -16 -9.5 -25.5t-25.5 -9.5h-750q-16 0 -25.5 9.5t-9.5 25.5v750
q0 16 9.5 25.5t25.5 9.5h750q16 0 25.5 -9.5t9.5 -25.5v-750zM751 179q0 -15 -9.5 -24.5t-24.5 -9.5h-34v-68h102q15 0 24.5 9.5t9.5 24.5v102h-68v-34zM444 77h136v68h-136v-68z" />
    <glyph glyph-name="zxz" unicode="&#xe61f;" 
d="M205 657v-239h170q44 0 73.5 29.5t29.5 73.5v170h-239q-15 0 -24.5 -9.5t-9.5 -24.5zM375 350h-170v-239q0 -15 9.5 -24.5t24.5 -9.5h239v170q0 44 -29.5 73.5t-73.5 29.5zM922 862h-820q-28 0 -48 -20t-20 -48v-820q0 -28 20 -48t48 -20h820q28 0 48 20t20 48v820
q0 28 -20 48t-48 20zM922 9q0 -16 -9.5 -25.5t-25.5 -9.5h-750q-16 0 -25.5 9.5t-9.5 25.5v750q0 16 9.5 25.5t25.5 9.5h750q16 0 25.5 -9.5t9.5 -25.5v-750zM785 691h-239v-170q0 -44 29.5 -73.5t73.5 -29.5h170v239q0 15 -9.5 24.5t-24.5 9.5zM546 247v-170h239
q15 0 24.5 9.5t9.5 24.5v239h-170q-44 0 -73.5 -29.5t-29.5 -73.5z" />
    <glyph glyph-name="ph" unicode="&#xe620;" 
d="M512 418q27 0 47.5 40.5t20.5 79.5q0 35 -20 60t-48 25t-48 -25t-20 -60q0 -39 20.5 -79.5t47.5 -40.5zM512 350q-27 0 -47.5 -40.5t-20.5 -79.5q0 -35 20 -60t48 -25t48 25t20 60q0 39 -20.5 79.5t-47.5 40.5zM922 862h-820q-28 0 -48 -20t-20 -48v-820q0 -28 20 -48
t48 -20h820q28 0 48 20t20 48v820q0 28 -20 48t-48 20zM102 759q0 16 9.5 25.5t25.5 9.5h341l-376 -376v341zM137 -26q-16 0 -25.5 9.5t-9.5 25.5v341l376 -376h-341zM171 384l341 341l341 -341l-341 -341zM922 9q0 -16 -9.5 -25.5t-25.5 -9.5h-341l376 376v-341zM922 418
l-376 376h341q16 0 25.5 -9.5t9.5 -25.5v-341zM666 452q-39 0 -79.5 -20.5t-40.5 -47.5t40.5 -47.5t79.5 -20.5q35 0 60 20t25 48t-25 48t-60 20zM478 384q0 27 -40.5 47.5t-79.5 20.5q-35 0 -60 -20t-25 -48t25 -48t60 -20q39 0 79.5 20.5t40.5 47.5z" />
    <glyph glyph-name="zqfa" unicode="&#xe621;" 
d="M922 862h-820q-28 0 -48 -20t-20 -48v-820q0 -28 20 -48t48 -20h820q28 0 48 20t20 48v820q0 28 -20 48t-48 20zM922 9q0 -16 -9.5 -25.5t-25.5 -9.5h-750q-16 0 -25.5 9.5t-9.5 25.5v750q0 16 9.5 25.5t25.5 9.5h750q16 0 25.5 -9.5t9.5 -25.5v-750zM751 418h-478
q-15 0 -24.5 -9.5t-9.5 -24.5t9.5 -24.5t24.5 -9.5h478q15 0 24.5 9.5t9.5 24.5t-9.5 24.5t-24.5 9.5zM751 623h-478q-15 0 -24.5 -9.5t-9.5 -25t9.5 -24.5t24.5 -9h478q15 0 24.5 9t9.5 24.5t-9.5 25t-24.5 9.5zM751 213h-478q-15 0 -24.5 -9t-9.5 -24.5t9.5 -25t24.5 -9.5
h478q15 0 24.5 9.5t9.5 25t-9.5 24.5t-24.5 9z" />
    <glyph glyph-name="xuanran" unicode="&#xe619;" 
d="M840 753h-656q-17 0 -29 -12t-12 -29v-656q0 -17 12 -29t29 -12h656q17 0 29 12t12 29v656q0 17 -12 29t-29 12zM799 118q0 -9 -6 -15t-15 -6h-532q-9 0 -15 6t-6 15v532q0 9 6 15t15 6h532q9 0 15 -6t6 -15v-532zM690 417l-153 155q-13 14 -33.5 14t-34.5 -14l-37 -38
l-90 90q-6 6 -14.5 6t-14.5 -6.5t-6 -14.5t6 -14l90 -90l-122 -125q-14 -14 -14 -34t14 -34l153 -155q18 -15 35 -15q20 0 35 15l188 190q13 15 12.5 35.5t-14.5 34.5zM633 384l-285 2l88 88l43 -43q6 -6 14.5 -6t14.5 6t6 14.5t-6 14.5l-43 43l18 18q13 6 17 6q10 0 16 -6
l4 -4l113 -110q5 -15 0 -23zM717 138q38 0 52.5 20t7.5 49.5t-19.5 58.5t-25.5 50l-13 21l-31 -52q-68 -128 7 -144q10 -3 22 -3z" />
    <glyph glyph-name="chongzhi" unicode="&#xe622;" 
d="M535 775q-107 0 -197 -53.5t-141 -142.5l-17 63q-4 17 -18.5 25t-30.5 4q-17 -5 -25 -19.5t-4 -29.5l43 -158q5 -17 19.5 -25t30.5 -4l157 43q17 5 25.5 19.5t3.5 29.5q-5 17 -19.5 25.5t-29.5 3.5l-62 -16q41 70 111 111.5t154 41.5q127 0 217 -89.5t90 -217t-90 -217.5
t-217 -90q-98 0 -176.5 55t-110.5 144l-2 -3q-10 27 -39 27q-17 0 -29 -12t-12 -29q0 -16 10 -27q45 -107 142 -173t217 -66q105 0 195 52t142 141.5t52 195.5t-52 196t-142 142.5t-195 52.5z" />
    <glyph glyph-name="bianji" unicode="&#xe628;" 
d="M840 753h-656q-17 0 -29 -12t-12 -29v-656q0 -17 12 -29t29 -12h656q17 0 29 12t12 29v656q0 17 -12 29t-29 12zM799 118q0 -9 -6 -15t-15 -6h-532q-9 0 -15 6t-6 15v532q0 9 6 15t15 6h532q9 0 15 -6t6 -15v-532zM317 275l86 -86l259 261l-87 86zM266 138l123 31l-92 92
zM705 622q-10 9 -23 9t-23 -9l-65 -68l88 -88l66 65q9 10 9 23t-9 23z" />
    <glyph glyph-name="danpiantihuan" unicode="&#xe629;" 
d="M512 712q0 17 -12 29t-29 12h-287q-17 0 -29 -12t-12 -29v-287q0 -17 12 -29t29 -12h287q17 0 29 12t12 29v287zM268 200h60l-92 123l-93 -123h62q7 -79 66 -132t139 -53q16 0 41 4v64q-19 -6 -41 -6q-54 0 -95 35t-47 88zM840 384h-287q-17 0 -29 -12t-12 -29v-287
q0 -17 12 -29t29 -12h287q17 0 29 12t12 29v287q0 17 -12 29t-29 12zM799 118q0 -9 -6 -15t-15 -6h-164q-9 0 -14.5 6t-5.5 15v164q0 9 5.5 14.5t14.5 5.5h164q9 0 15 -5.5t6 -14.5v-164zM756 568h-60l92 -123l93 123h-62q-8 78 -66.5 131.5t-138.5 53.5q-16 0 -41 -4v-64
q19 6 41 6q54 0 94 -35t48 -88z" />
    <glyph glyph-name="dengfenqiangti" unicode="&#xe62a;" 
d="M512 486q-43 0 -72.5 -29.5t-29.5 -72.5t29.5 -72.5t72.5 -29.5t72.5 29.5t29.5 72.5t-29.5 72.5t-72.5 29.5zM983 425h-266q-9 0 -15 -5.5t-6 -15.5v-40q0 -10 6 -15.5t15 -5.5h266q9 0 15 5.5t6 15.5v40q0 10 -6 15.5t-15 5.5zM307 425h-266q-9 0 -15 -5.5t-6 -15.5
v-40q0 -10 6 -15.5t15 -5.5h266q9 0 15 5.5t6 15.5v40q0 10 -6 15.5t-15 5.5z" />
    <glyph glyph-name="bianzu" unicode="&#xe62b;" 
d="M614 241h205v41h-205v-41zM205 241h205v41h-205v-41zM512 323q-26 0 -43.5 -18t-17.5 -44t17.5 -43.5t43.5 -17.5t43.5 17.5t17.5 43.5t-17.5 44t-43.5 18zM921.5 323q-26.5 0 -44 -18t-17.5 -44t17.5 -43.5t44 -17.5t44 17.5t17.5 43.5t-17.5 44t-44 18zM102.5 323
q-26.5 0 -44 -18t-17.5 -44t17.5 -43.5t44 -17.5t44 17.5t17.5 43.5t-17.5 44t-44 18zM512 712zM471 712q0 -17 12 -29t29 -12t29 12t12 29t-12 29t-29 12t-29 -12t-12 -29zM355 687q4 -13 15.5 -22t24.5 -9q17 0 29 12t12 29q0 6 -1 11q-4 12 -15.5 21t-24.5 9
q-17 0 -29 -12t-12 -29q0 -5 1 -10z" />
    <glyph glyph-name="dingjiaoxian" unicode="&#xe62c;" 
d="M860 773h-696q-17 0 -29 -12t-12 -29v-696q0 -17 12 -29t29 -12q18 0 29.5 15.5t11.5 45.5v21q0 16 8.5 41t31 61t55.5 71t88.5 71.5t123.5 62.5q67 26 123.5 67.5t89 80.5t55 77.5t31 59t8.5 22.5h41q17 0 29 12t12 29t-12 29t-29 12zM205 243v170l63 -64
q-32 -31 -47.5 -59.5t-15.5 -46.5zM205 519v160l231 -232q-62 -25 -106 -53zM512 478l-213 213h180l139 -139q-50 -47 -106 -74zM662 597l-97 94h152q-15 -43 -55 -94z" />
    <glyph glyph-name="fuzhi" unicode="&#xe62d;" 
d="M594 486h-102v103q0 17 -12.5 29t-29 12t-28.5 -12t-12 -29v-103h-103q-17 0 -29 -12t-12 -28.5t12 -29t29 -12.5h103v-102q0 -17 12 -29t28.5 -12t29 12t12.5 29v102h102q17 0 29 12.5t12 29t-12 28.5t-29 12zM860 650h-82v82q0 17 -12 29t-29 12h-573q-17 0 -29 -12
t-12 -29v-573q0 -17 12 -29t29 -12h82v-82q0 -17 12 -29t29 -12h573q17 0 29 12t12 29v573q0 17 -12 29t-29 12zM225 200q-9 0 -14.5 5.5t-5.5 14.5v451q0 9 5.5 14.5t14.5 5.5h451q9 0 14.5 -5.5t5.5 -14.5v-451q0 -9 -5.5 -14.5t-14.5 -5.5h-451zM819 97q0 -9 -5.5 -14.5
t-14.5 -5.5h-451q-9 0 -14.5 5.5t-5.5 14.5v21h409q17 0 29 12t12 29v409h21q9 0 14.5 -5.5t5.5 -14.5v-451z" />
    <glyph glyph-name="gongneng" unicode="&#xe62e;" 
d="M266 712q-34 0 -58 -24t-24 -58t24 -58t58 -24t58 24t24 58t-24 58t-58 24zM512 712q-34 0 -58 -24t-24 -58t24 -58t58 -24t58 24t24 58t-24 58t-58 24zM758 548q34 0 58 24t24 58t-24 58t-58 24t-58 -24t-24 -58t24 -58t58 -24zM266 466q-34 0 -58 -24t-24 -58t24 -58
t58 -24t58 24t24 58t-24 58t-58 24zM512 466q-34 0 -58 -24t-24 -58t24 -58t58 -24t58 24t24 58t-24 58t-58 24zM758 466q-34 0 -58 -24t-24 -58t24 -58t58 -24t58 24t24 58t-24 58t-58 24zM266 220q-34 0 -58 -24t-24 -58t24 -58t58 -24t58 24t24 58t-24 58t-58 24z
M512 220q-34 0 -58 -24t-24 -58t24 -58t58 -24t58 24t24 58t-24 58t-58 24zM758 220q-34 0 -58 -24t-24 -58t24 -58t58 -24t58 24t24 58t-24 58t-58 24z" />
    <glyph glyph-name="gongnengguanbi" unicode="&#xe62f;" 
d="M569 384l174 174q13 12 13 28.5t-12.5 29t-29 12.5t-28.5 -13l-174 -174l-174 174q-12 13 -28.5 13t-29 -12.5t-12.5 -29t13 -28.5l174 -174l-174 -174q-13 -12 -13 -28.5t12.5 -29t29 -12.5t28.5 13l174 174l174 -174q12 -13 28.5 -13t29 12.5t12.5 29t-13 28.5z" />
    <glyph glyph-name="bodaxianwaikuang" unicode="&#xe630;" 
d="M348 282h-61v-123h123v61h-62v62zM287 486h61v62h62v61h-123v-123zM451 159h122v61h-122v-61zM348 445h-61v-122h61v122zM676 323h61v122h-61v-122zM840 753h-656q-17 0 -29 -12t-12 -29v-656q0 -17 12 -29t29 -12h656q17 0 29 12t12 29v656q0 17 -12 29t-29 12zM799 118
q0 -9 -6 -15t-15 -6h-532q-9 0 -15 6t-6 15v532q0 9 6 15t15 6h532q9 0 15 -6t6 -15v-532zM614 548h62v-62h61v123h-123v-61zM676 220h-62v-61h123v123h-61v-62zM451 548h122v61h-122v-61z" />
    <glyph glyph-name="jiezu" unicode="&#xe631;" 
d="M942 384q9 0 15 5.5t6 14.5v82q0 10 -6 15.5t-15 5.5h-82q-9 0 -14.5 -5.5t-5.5 -15.5v-20h-205v20q0 10 -5.5 15.5t-15.5 5.5h-82q-9 0 -14.5 -5.5t-5.5 -15.5v-82q0 -9 5.5 -14.5t14.5 -5.5h21v-287h-21q-9 0 -14.5 -5.5t-5.5 -14.5v-82q0 -9 5.5 -15t14.5 -6h82
q10 0 15.5 6t5.5 15v20h205v-20q0 -9 5.5 -15t14.5 -6h82q9 0 15 6t6 15v82q0 9 -6 14.5t-15 5.5h-20v287h20zM594 15h-41v41h41v-41zM594 425h-41v41h41v-41zM840 118q0 -9 -6 -15t-15 -6h-164q-9 0 -14.5 6t-5.5 15v246q0 9 5.5 14.5t14.5 5.5h164q9 0 15 -5.5t6 -14.5
v-246zM922 15h-41v41h41v-41zM881 425v41h41v-41h-41zM512 364q0 9 -5.5 14.5t-14.5 5.5h-21v287h21q9 0 14.5 5.5t5.5 14.5v82q0 9 -5.5 15t-14.5 6h-82q-10 0 -15.5 -6t-5.5 -15v-20h-205v20q0 9 -5.5 15t-14.5 6h-82q-9 0 -15 -6t-6 -15v-82q0 -9 6 -14.5t15 -5.5h20
v-287h-20q-9 0 -15 -5.5t-6 -14.5v-82q0 -10 6 -15.5t15 -5.5h82q9 0 14.5 5.5t5.5 15.5v20h205v-20q0 -10 5.5 -15.5t15.5 -5.5h82q9 0 14.5 5.5t5.5 15.5v82zM143 302h-41v41h41v-41zM143 712h-41v41h41v-41zM430 753h41v-41h-41v41zM471 302h-41v41h41v-41z" />
    <glyph glyph-name="chuizhijuzhong" unicode="&#xe632;" 
d="M901 425h-102v164q0 17 -12 29t-29 12h-185q-16 0 -28.5 -12t-12.5 -29v-164h-40v287q0 17 -12.5 29t-28.5 12h-185q-17 0 -29 -12t-12 -29v-287h-102q-9 0 -15 -5.5t-6 -15.5v-40q0 -10 6 -15.5t15 -5.5h102v-287q0 -17 12 -29t29 -12h185q16 0 28.5 12t12.5 29v287h40
v-164q0 -17 12.5 -29t28.5 -12h185q17 0 29 12t12 29v164h102q9 0 15 5.5t6 15.5v40q0 10 -6 15.5t-15 5.5zM410 118q0 -9 -6 -15t-15 -6h-61q-10 0 -15.5 6t-5.5 15v532q0 9 5.5 15t15.5 6h61q9 0 15 -6t6 -15v-532zM717 241q0 -10 -5.5 -15.5t-15.5 -5.5h-61q-9 0 -15 5.5
t-6 15.5v286q0 10 6 15.5t15 5.5h61q10 0 15.5 -5.5t5.5 -15.5v-286z" />
    <glyph glyph-name="jingxiang" unicode="&#xe633;" 
d="M410 630l-308 -471q0 -9 6 -15t15 -6h287q9 0 14.5 6t5.5 15v450q0 9 -5.5 15t-14.5 6zM348 220h-102l102 144v-144zM614 630q-9 0 -14.5 -6t-5.5 -15v-450q0 -9 5.5 -15t14.5 -6h287q9 0 15 6t6 15zM676 220v144l102 -144h-102zM532 753h-40q-10 0 -15.5 -6t-5.5 -15
v-696q0 -9 5.5 -15t15.5 -6h40q10 0 15.5 6t5.5 15v696q0 9 -5.5 15t-15.5 6z" />
    <glyph glyph-name="hebingduanqiang" unicode="&#xe634;" 
d="M512 204zM451 203.5q0 -25.5 18 -43.5t43 -18t43 18t18 43.5t-18 43.5t-43 18t-43 -18t-18 -43.5zM614 185h205v41h-205v-41zM205 185h205v41h-205v-41zM922 267q-27 0 -44.5 -17.5t-17.5 -43.5t17.5 -44t44 -18t44 18t17.5 44q0 25 -18 43t-43 18zM102 267
q-26 0 -43.5 -17.5t-17.5 -43.5t17.5 -44t44 -18t44 18t17.5 44q0 25 -18 43t-44 18zM512 634zM481 634q0 -13 9 -22t22 -9t22 9t9 22t-9 22t-22 9t-22 -9t-9 -22zM616 590q4 -1 8 -1q13 0 22 9t9 21q0 10 -7 18.5t-16 11.5q-4 1 -8 1q-13 0 -22 -9t-9 -22q0 -9 6.5 -18
t16.5 -11zM712 550q7 -4 16 -4q12 0 21 9t9 22q0 18 -15 26q-7 5 -15 5q-13 0 -22 -9t-9 -22q0 -18 15 -27zM794 486q9 -9 21.5 -9t21.5 9t9 22t-9 22t-21.5 9t-21.5 -9t-9 -22t9 -22zM859 404q8 -16 26 -16q13 0 22 9t9 22q0 8 -4 15q-9 16 -27 16q-13 0 -22 -9t-9 -22
q0 -8 5 -15zM898 309q2 -10 11 -16.5t19 -6.5q12 0 21 9t9 21q0 5 -1 8q-2 10 -11 16.5t-18 6.5q-13 0 -22 -9t-9 -22q0 -4 1 -7zM88 286q4 -1 8 -1q13 0 22 9t9 22q0 10 -6.5 18.5t-16.5 11.5q-4 1 -8 1q-13 0 -22 -9t-9 -22q0 -10 7 -18.5t16 -11.5zM125 392q7 -4 15 -4
q13 0 22 9t9 22q0 18 -15 27q-7 4 -16 4q-12 0 -21 -9t-9 -22q0 -18 15 -27zM187 488q9 -9 21.5 -9t21.5 9t9 21.5t-9 21.5t-21.5 9t-21.5 -9t-9 -21.5t9 -21.5zM271 561q9 -15 26 -15q13 0 22 9t9 22q0 8 -4 15q-9 15 -27 15q-12 0 -21 -9t-9 -21q0 -9 4 -16zM372 612
q2 -10 11 -16.5t19 -6.5q12 0 21 9t9 22q0 4 -1 8q-2 9 -11 15.5t-18 6.5q-13 0 -22 -9t-9 -21q0 -4 1 -8zM512 634zM481 634q0 -13 9 -22t22 -9t22 9t9 22t-9 22t-22 9t-22 -9t-9 -22z" />
    <glyph glyph-name="putieqidian" unicode="&#xe635;" 
d="M460.5 486q21.5 0 36.5 -14.5t15 -36t-15 -36.5t-36.5 -15t-36 15t-14.5 36.5t14.5 36t36 14.5zM461 609l-174 -174l174 -174l174 174zM492 364h-62q-17 0 -29 12t-12 28v62q0 17 12 29t29 12h62q16 0 28 -12t12 -29v-62q0 -16 -12 -28t-28 -12zM625 466l30 -31l-30 -31
h174v62h-174zM266 435l31 31h-72v-62h72zM492 271l-31 -30l-31 30v-174h62v174zM461 630l31 -31v72h-62v-72zM840 753h-656q-17 0 -29 -12t-12 -29v-656q0 -17 12 -29t29 -12h656q17 0 29 12t12 29v656q0 17 -12 29t-29 12zM799 118q0 -9 -6 -15t-15 -6h-532q-9 0 -15 6
t-6 15v532q0 9 6 15t15 6h532q9 0 15 -6t6 -15v-532z" />
    <glyph glyph-name="qiangtikaidong" unicode="&#xe636;" 
d="M840 753h-656q-17 0 -29 -12t-12 -29v-656q0 -17 12 -29t29 -12h205v430q0 10 5.5 15.5t15.5 5.5h204q10 0 15.5 -5.5t5.5 -15.5v-430h205q17 0 29 12t12 29v656q0 17 -12 29t-29 12zM799 118q0 -9 -6 -15t-15 -6h-61v410q0 17 -12 29t-29 12h-328q-17 0 -29 -12t-12 -29
v-410h-61q-9 0 -15 6t-6 15v532q0 9 6 15t15 6h532q9 0 15 -6t6 -15v-532z" />
    <glyph glyph-name="pinhua" unicode="&#xe637;" 
d="M635 445q-26 0 -47 -11t-29 -30h-27v-40h27q8 -19 29 -30t47 -11q34 0 58 17.5t24 43.5t-24 43.5t-58 17.5zM594 343q-25 0 -35 21h14v40h-14q10 21 35 21q19 0 40 -12.5t21 -28.5t-21 -28.5t-40 -12.5zM840 753h-656q-17 0 -29 -12t-12 -29v-656q0 -17 12 -29t29 -12
h656q17 0 29 12t12 29v656q0 17 -12 29t-29 12zM225 650q0 9 6 15t15 6h205l-226 -226v205zM246 97q-9 0 -15 6t-6 15v205l226 -226h-205zM246 384l266 266l266 -266l-266 -266zM799 118q0 -9 -6 -15t-15 -6h-205l226 226v-205zM799 445l-226 226h205q9 0 15 -6t6 -15v-205z
M532 431q19 8 30 29t11 47q0 34 -17.5 58t-43.5 24t-43.5 -24t-17.5 -58q0 -26 11 -47t30 -29v-27h40v27zM492 431q-21 10 -21 35q0 19 12.5 40t28.5 21t28.5 -21t12.5 -40q0 -25 -21 -35v14h-40v-14zM492 337q-19 -8 -30 -29t-11 -47q0 -34 17.5 -58t43.5 -24t43.5 24
t17.5 58q0 26 -11 47t-30 29v27h-40v-27zM532 337q21 -10 21 -35q0 -19 -12.5 -40t-28.5 -21t-28.5 21t-12.5 40q0 25 21 35v-14h40v14zM465 404q-8 19 -29 30t-47 11q-34 0 -58 -17.5t-24 -43.5t24 -43.5t58 -17.5q26 0 47 11t29 30h27v40h-27zM465 364q-10 -21 -35 -21
q-19 0 -40 12.5t-21 28.5t21 28.5t40 12.5q25 0 35 -21h-14v-40h14z" />
    <glyph glyph-name="putie" unicode="&#xe638;" 
d="M860 630h-61v102q0 17 -12 29t-29 12h-574q-17 0 -29 -12t-12 -29v-246q0 -16 12 -28.5t29 -12.5h574q17 0 29 12.5t12 28.5v103h41v-185h-348q-10 0 -15.5 -5.5t-5.5 -14.5v-102q-17 0 -29 -12t-12 -29v-205q0 -17 12 -29t29 -12h41q17 0 29 12t12 29v205q0 17 -12 29
t-29 12v82h348q9 0 15 5.5t6 14.5v225q0 9 -6 15t-15 6zM717 548q0 -9 -5.5 -15t-15.5 -6h-450q-9 0 -15 6t-6 15v123q0 9 6 14.5t15 5.5h450q10 0 15.5 -5.5t5.5 -14.5v-123z" />
    <glyph glyph-name="qingchu" unicode="&#xe639;" 
d="M737 527h-123v205q0 17 -12 29t-29 12h-122q-17 0 -29 -12t-12 -29v-205h-123q-34 0 -58 -24t-24 -58v-122h614v122q0 34 -24 58t-58 24zM492 691h40v-164h-40v164zM737 364h-450v40q0 17 12 29t29 12h368q17 0 29 -12t12 -29v-40zM205 36q0 -17 12 -29t29 -12h532
q17 0 29 12t12 29v287h-614v-287zM287 282h450v-205h-41v123h-82v-123h-61v123h-82v-123h-61v123h-82v-123h-41v205z" />
    <glyph glyph-name="shanchu" unicode="&#xe63a;" 
d="M860 650h-225v62q0 26 -17.5 43.5t-44.5 17.5h-122q-27 0 -44.5 -17.5t-17.5 -43.5v-62h-225q-17 0 -29 -12t-12 -29t12 -29t29 -12h61v-532q0 -17 12 -29t29 -12h492q17 0 29 12t12 29v532h61q17 0 29 12t12 29t-12 29t-29 12zM471 691h82v-41h-82v41zM717 97
q0 -9 -5.5 -14.5t-15.5 -5.5h-368q-10 0 -15.5 5.5t-5.5 14.5v471h410v-471zM594 118q17 0 29 12t12 29v327q0 17 -12 29t-29 12t-29 -12t-12 -29v-327q0 -17 12 -29t29 -12zM430 118q17 0 29 12t12 29v327q0 17 -12 29t-29 12t-29 -12t-12 -29v-327q0 -17 12 -29t29 -12z
" />
    <glyph glyph-name="shipeizhengqiang" unicode="&#xe63b;" 
d="M840 753h-656q-17 0 -29 -12t-12 -29v-656q0 -17 12 -29t29 -12h656q17 0 29 12t12 29v656q0 17 -12 29t-29 12zM799 118q0 -9 -6 -15t-15 -6h-532q-9 0 -15 6t-6 15v532q0 9 6 15t15 6h532q9 0 15 -6t6 -15v-532zM717 630h-164q-17 0 -29 -12t-12 -29t12 -29t29 -12h63
l-268 -268v63q0 17 -12 29t-29 12t-29 -12t-12 -29v-164q0 -17 12 -29t29 -12h164q17 0 29 12t12 29t-12 29t-29 12h-63l268 268v-63q0 -17 12 -29t29 -12t29 12t12 29v164q0 17 -12 29t-29 12z" />
    <glyph glyph-name="tijiaoxian" unicode="&#xe63c;" 
d="M860 77h-328v409q0 68 -48 116t-115 48h-164v82q0 17 -12 29t-29 12t-29 -12t-12 -29v-696q0 -17 12 -29t29 -12h696q17 0 29 12t12 29t-12 29t-29 12zM205 568h98l-98 -98v98zM205 382l174 174q41 -19 59 -59l-233 -232v117zM205 177l246 246v-119l-230 -227h-16v100z
M309 77l142 141v-141h-142z" />
    <glyph glyph-name="shuaxin" unicode="&#xe63d;" 
d="M276 681h-163q-17 0 -29 -12t-12 -29t12 -29t29 -12h123v-123q0 -17 12 -29t28.5 -12t28.5 12t12 29v164q0 17 -12 29t-29 12zM911 169h-123v123q0 17 -12 29t-28.5 12t-28.5 -12t-12 -29v-164q0 -17 12 -29t29 -12h163q17 0 29 12t12 29t-12 29t-29 12z" />
    <glyph glyph-name="shuipingjuzhong" unicode="&#xe63e;" 
d="M840 364h-287v40h164q17 0 29 12.5t12 28.5v185q0 17 -12 29t-29 12h-164v102q0 9 -5.5 15t-15.5 6h-40q-10 0 -15.5 -6t-5.5 -15v-102h-164q-17 0 -29 -12t-12 -29v-185q0 -16 12 -28.5t29 -12.5h164v-40h-287q-17 0 -29 -12.5t-12 -28.5v-185q0 -17 12 -29t29 -12h287
v-102q0 -9 5.5 -15t15.5 -6h40q10 0 15.5 6t5.5 15v102h287q17 0 29 12t12 29v185q0 16 -12 28.5t-29 12.5zM369 486q-10 0 -15.5 6t-5.5 15v61q0 10 5.5 15.5t15.5 5.5h286q10 0 15.5 -5.5t5.5 -15.5v-61q0 -9 -5.5 -15t-15.5 -6h-286zM799 200q0 -10 -6 -15.5t-15 -5.5
h-532q-9 0 -15 5.5t-6 15.5v61q0 9 6 15t15 6h532q9 0 15 -6t6 -15v-61z" />
    <glyph glyph-name="xinjian" unicode="&#xe63f;" 
d="M631 400h-103v103q0 17 -12 29t-28.5 12t-29 -12t-12.5 -29v-103h-102q-17 0 -29 -12t-12 -28.5t12 -29t29 -12.5h102v-102q0 -17 12.5 -29t29 -12t28.5 12t12 29v102h103q17 0 29 12.5t12 29t-12 28.5t-29 12zM893 562l-203 203v4h-532q-17 0 -29 -12t-12 -29v-696
q0 -17 12 -29t29 -12h696q17 0 29 12t12 29v532h-2v-2zM692 648l84 -84h-63q-10 0 -15.5 5.5t-5.5 15.5v63zM815 93q0 -9 -6.5 -15.5t-15.5 -6.5h-572q-9 0 -15.5 6.5t-6.5 15.5v572q0 9 6.5 15.5t15.5 6.5h432h-43v-164q0 -17 12 -29t29 -12h164v43v-432z" />
    <glyph glyph-name="xiguan" unicode="&#xe640;" 
d="M389 95q-9 -15 -25.5 -19t-32 5t-19.5 25t5 30l248 424l-71 41l-269 -459q-15 -27 -8.5 -57.5t31.5 -48.5l-12 -41q-9 -16 -4.5 -32t18.5 -23q16 -9 32 -4.5t25 18.5l31 31q27 -13 57 -3t45 37l269 461l-72 41zM786 529l-71 41l84 142q17 29 8 62.5t-39 49.5
q-31 17 -63.5 8t-49.5 -38l-82 -142l-71 41q-16 9 -32 4.5t-26 -18.5q-8 -16 -3.5 -31.5t18.5 -23.5l106 -62l41 -22l137 -78q16 -9 32 -4.5t26 18.5q9 12 5 29t-20 24z" />
    <glyph glyph-name="xinxi" unicode="&#xe641;" 
d="M512 630q-26 0 -43.5 -18t-17.5 -44t17.5 -43.5t43.5 -17.5t43.5 17.5t17.5 43.5t-17.5 44t-43.5 18zM512 814q-117 0 -216 -57.5t-156.5 -156.5t-57.5 -216t57.5 -216t156.5 -156.5t216 -57.5t216 57.5t156.5 156.5t57.5 216t-57.5 216t-156.5 156.5t-216 57.5zM512 36
q-95 0 -175 46.5t-126.5 126.5t-46.5 175t46.5 175t126.5 126.5t175 46.5t175 -46.5t126.5 -126.5t46.5 -175t-46.5 -175t-126.5 -126.5t-175 -46.5zM512 466q-17 0 -29 -12t-12 -29v-246q0 -17 12 -29t29 -12t29 12t12 29v246q0 17 -12 29t-29 12z" />
    <glyph glyph-name="zhengjianyingyong" unicode="&#xe642;" 
d="M471 609h-164q-9 0 -14.5 -5.5t-5.5 -14.5v-164q0 -9 5.5 -15t14.5 -6h164q9 0 15 6t6 15v164q0 9 -6 14.5t-15 5.5zM717 364h-164q-9 0 -15 -6t-6 -15v-164q0 -9 6 -14.5t15 -5.5h164q9 0 14.5 5.5t5.5 14.5v164q0 9 -5.5 15t-14.5 6zM840 753h-656q-17 0 -29 -12
t-12 -29v-656q0 -17 12 -29t29 -12h656q17 0 29 12t12 29v656q0 17 -12 29t-29 12zM799 118q0 -9 -6 -15t-15 -6h-532q-9 0 -15 6t-6 15v532q0 9 6 15t15 6h532q9 0 15 -6t6 -15v-532zM717 609h-164q-9 0 -15 -5.5t-6 -14.5v-164q0 -9 6 -15t15 -6h164q9 0 14.5 6t5.5 15
v164q0 9 -5.5 14.5t-14.5 5.5zM471 364h-164q-9 0 -14.5 -6t-5.5 -15v-164q0 -9 5.5 -14.5t14.5 -5.5h164q9 0 15 5.5t6 14.5v164q0 9 -6 15t-15 6z" />
    <glyph glyph-name="yincang" unicode="&#xe643;" 
d="M948 611l-20 35q-10 16 -29 8l-143 -84q-109 80 -244 80q-131 0 -237.5 -74t-151.5 -192q25 -68 82 -131l-121 -70q-16 -9 -8 -28l20 -35q10 -16 29 -8l143 84q111 -78 244 -78q131 0 237.5 74t151.5 192q-25 68 -82 131l121 70q8 3 10.5 11.5t-2.5 14.5zM336 384
q0 75 51 126.5t125 51.5q77 0 129 -55l-63 -37q-29 23 -66 23q-45 0 -75.5 -31t-30.5 -76q0 -8 2 -12l-66 -37q-6 18 -6 47zM688 384q0 -75 -51 -126.5t-125 -51.5q-77 0 -129 55l63 37q29 -23 66 -23q45 0 75.5 31t30.5 76q0 8 -2 12l66 37q6 -18 6 -47z" />
  </font>
</defs>
</svg>
